<svg width="60" height="60" viewBox="0 0 60 60" fill="none" xmlns="http://www.w3.org/2000/svg">
<path d="M30 60C46.5685 60 60 46.5685 60 30C60 13.4315 46.5685 0 30 0C13.4315 0 0 13.4315 0 30C0 46.5685 13.4315 60 30 60Z" fill="#E8952F"/>
<path d="M20.0205 34.8869C20.2333 34.8261 20.4617 34.8558 20.652 34.9689C22.2518 35.9203 24.0793 36.4297 25.9833 36.4297C31.7527 36.4297 36.4297 31.7527 36.4297 25.9833C36.4297 20.2139 31.7527 15.5368 25.9833 15.5368C20.2139 15.5368 15.5368 20.2139 15.5368 25.9833C15.5368 27.8872 16.0462 29.7147 16.9976 31.3146C17.1108 31.5048 17.1404 31.7333 17.0796 31.9461L15.9033 36.0632L20.0205 34.8869ZM37.5205 22.482C42.5511 24.0058 46.0726 28.6644 46.0726 34.019C46.0726 36.0943 45.5467 38.0943 44.5613 39.8669L46.0416 45.0482C46.2148 45.6544 45.6544 46.2148 45.0482 46.0416L39.8669 44.5613C38.0943 45.5467 36.0943 46.0725 34.019 46.0725C28.6696 46.0725 24.0084 42.5571 22.482 37.5203C21.6671 37.2733 20.8811 36.9401 20.1353 36.5255L14.954 38.0059C14.3478 38.1791 13.7874 37.6187 13.9606 37.0125L15.441 31.8312C14.4556 30.0586 13.9297 28.0585 13.9297 25.9833C13.9297 19.3263 19.3263 13.9297 25.9833 13.9297C31.4226 13.9297 36.0204 17.5326 37.5205 22.482ZM37.9239 24.3261C37.9983 24.8678 38.0368 25.421 38.0368 25.9833C38.0368 32.6403 32.6403 38.0368 25.9833 38.0368C25.4244 38.0368 24.8711 37.9987 24.3261 37.9237C25.8936 41.8178 29.6974 44.4654 34.019 44.4654C35.923 44.4654 37.7504 43.956 39.3503 43.0046C39.5405 42.8915 39.769 42.8618 39.9818 42.9226L44.099 44.099L42.9226 39.9818C42.8618 39.769 42.8915 39.5405 43.0046 39.3503C43.956 37.7504 44.4654 35.923 44.4654 34.019C44.4654 29.6936 41.8135 25.8916 37.9239 24.3261Z" fill="white"/>
</svg>
